# 3ds Max Wavefront OBJ Exporter v0.97b - (c)2007 guruware
# File Created: 26.08.2012 19:13:50

mtllib space_box.mtl

#
# object sky_cube_right
#

v  10.017155 -9.967009 -9.996765
v  10.017155 -9.967009 10.003235
v  10.017155 10.032991 10.003235
v  10.017155 10.032991 -9.996765
# 4 vertices

vn -1.000000 0.000000 -0.000000
# 1 vertex normals

vt 0.000000 0.000000 0.000000
vt 1.000000 0.000000 0.000000
vt 1.000000 1.000000 0.000000
vt 0.000000 1.000000 0.000000
# 4 texture coords

g sky_cube_right
usemtl sky_cube_right_mtl
f 1/1/1 2/2/1 3/3/1 
f 3/3/1 4/4/1 1/1/1 
# 2 faces

#
# object sky_cube_back
#

v  -9.954985 -9.967009 -9.996765
v  10.017155 -9.967009 -9.996765
v  10.017155 10.032991 -9.996765
v  -9.954985 10.032991 -9.996765
# 4 vertices

vn 0.000000 0.000000 1.000000
# 1 vertex normals

vt 0.000000 0.000000 0.000000
vt 1.000000 0.000000 0.000000
vt 1.000000 1.000000 0.000000
vt 0.000000 1.000000 0.000000
# 4 texture coords

g sky_cube_back
usemtl sky_cube_back_mtl
f 5/5/2 6/6/2 7/7/2 
f 7/7/2 8/8/2 5/5/2 
# 2 faces

#
# object sky_cube_left
#

v  -9.954985 -9.967009 10.003235
v  -9.954985 -9.967009 -9.996765
v  -9.954985 10.032991 -9.996765
v  -9.954985 10.032991 10.003235
# 4 vertices

vn 1.000000 0.000000 -0.000000
# 1 vertex normals

vt 0.000000 0.000000 0.000000
vt 1.000000 0.000000 0.000000
vt 1.000000 1.000000 0.000000
vt 0.000000 1.000000 0.000000
# 4 texture coords

g sky_cube_left
usemtl sky_cube_left_mtl
f 9/9/3 10/10/3 11/11/3 
f 11/11/3 12/12/3 9/9/3 
# 2 faces

#
# object sky_cube_top
#

v  10.017155 10.032991 10.003235
v  -9.954985 10.032991 10.003235
v  -9.954985 10.032991 -9.996765
v  10.017155 10.032991 -9.996765
# 4 vertices

vn 0.000000 -1.000000 -0.000000
# 1 vertex normals

vt 0.000000 0.000000 0.000000
vt 1.000000 0.000000 0.000000
vt 1.000000 1.000000 0.000000
vt 0.000000 1.000000 0.000000
# 4 texture coords

g sky_cube_top
usemtl sky_cube_top_mtl
f 13/13/4 14/14/4 15/15/4 
f 15/15/4 16/16/4 13/13/4 
# 2 faces

#
# object sky_cube_bottom
#

v  10.017155 -9.967009 10.003235
v  10.017155 -9.967009 -9.996765
v  -9.954985 -9.967009 -9.996765
v  -9.954985 -9.967009 10.003235
# 4 vertices

vn 0.000000 1.000000 -0.000000
# 1 vertex normals

vt 1.000000 0.000000 0.000000
vt 1.000000 1.000000 0.000000
vt 0.000000 1.000000 0.000000
vt 0.000000 0.000000 0.000000
# 4 texture coords

g sky_cube_bottom
usemtl sky_cube_bottom_mtl
f 17/17/5 18/18/5 19/19/5 
f 19/19/5 20/20/5 17/17/5 
# 2 faces

#
# object sky_cube_front
#

v  10.017155 -9.967009 10.003235
v  -9.954985 -9.967009 10.003235
v  -9.954985 10.032991 10.003235
v  10.017155 10.032991 10.003235
# 4 vertices

vn 0.000000 0.000000 -1.000000
# 1 vertex normals

vt 0.000000 0.000000 0.000000
vt 1.000000 0.000000 0.000000
vt 1.000000 1.000000 0.000000
vt 0.000000 1.000000 0.000000
# 4 texture coords

g sky_cube_front
usemtl sky_cube_front_mtl
f 21/21/6 22/22/6 23/23/6 
f 23/23/6 24/24/6 21/21/6 
# 2 faces

