# 3ds Max Wavefront OBJ Exporter v0.97b - (c)2007 guruware
# File Created: 04.05.2014 01:24:52

mtllib tree.mtl

#
# object Cylinder001
#

v  -0.071822 0.057645 -0.931095
v  0.025383 0.356811 -0.931095
v  0.242740 0.057645 -0.931095
v  -0.326308 0.242540 -0.931095
v  -0.326308 -0.127250 -0.931095
v  0.025383 -0.241521 -0.931095
v  0.025383 0.356811 2.554051
v  0.242740 0.057645 2.554051
v  -0.326308 0.242540 2.554051
v  -0.326308 -0.127250 2.554051
v  0.025383 -0.241521 2.554051
v  -0.071822 0.057645 2.554051
# 12 vertices

vn 0.000000 0.000000 -1.000000
vn 0.809017 0.587785 0.000000
vn -0.309017 0.951057 0.000000
vn -0.309017 0.951056 0.000000
vn -1.000000 -0.000000 0.000000
vn -0.309017 -0.951056 0.000000
vn -0.309017 -0.951057 0.000000
vn 0.809017 -0.587785 0.000000
vn 0.000000 0.000000 1.000000
# 9 vertex normals

vt 0.500000 0.000000 0.000000
vt 0.950000 0.000000 1.000000
vt 0.750000 0.000000 1.000000
vt 0.150000 0.000000 1.000000
vt -0.050000 0.000000 1.000000
vt 0.350000 0.000000 1.000000
vt 0.550000 0.000000 1.000000
vt 0.950000 1.000000 1.000000
vt 0.750000 1.000000 1.000000
vt 0.150000 1.000000 1.000000
vt -0.050000 1.000000 1.000000
vt 0.350000 1.000000 1.000000
vt 0.550000 1.000000 1.000000
vt 0.500000 1.000000 0.000000
# 14 texture coords

g Cylinder001
usemtl treebrown
f 1/1/1 2/2/1 3/3/1 
f 1/1/1 4/4/1 2/5/1 
f 1/1/1 5/6/1 4/4/1 
f 1/1/1 6/7/1 5/6/1 
f 1/1/1 3/3/1 6/7/1 
f 3/3/2 7/8/2 8/9/2 
f 3/3/2 2/2/2 7/8/2 
f 2/5/3 9/10/4 7/11/4 
f 2/5/4 4/4/4 9/10/3 
f 4/4/5 10/12/5 9/10/5 
f 4/4/5 5/6/5 10/12/5 
f 5/6/6 11/13/6 10/12/7 
f 5/6/6 6/7/7 11/13/6 
f 6/7/8 8/9/8 11/13/8 
f 6/7/8 3/3/8 8/9/8 
f 12/14/9 8/9/9 7/8/9 
f 12/14/9 7/11/9 9/10/9 
f 12/14/9 9/10/9 10/12/9 
f 12/14/9 10/12/9 11/13/9 
f 12/14/9 11/13/9 8/9/9 
# 20 faces

#
# object Cone002
#

v  -0.140878 -0.086425 4.547251
v  0.668747 0.938846 4.533208
v  1.165663 -0.080045 4.547111
v  -0.437834 1.185687 4.529880
v  -1.320801 0.474602 4.539632
v  -1.315262 -0.658949 4.555121
v  -0.425389 -1.361377 4.564684
v  0.678727 -1.103741 4.561119
v  -0.140709 -0.028959 6.536557
# 9 vertices

vn -0.000085 -0.028876 -0.999583
vn 0.999988 0.004883 -0.000107
vn 0.864770 0.429493 0.266888
vn 0.209519 0.946774 0.259846
vn -0.603486 0.757047 0.262471
vn -0.962037 0.003179 0.272787
vn -0.596137 -0.747150 0.283025
vn 0.218684 -0.928929 0.285477
vn 0.868848 -0.405273 0.278295
vn 0.868849 -0.405274 0.278295
# 10 vertex normals

vt 0.500000 0.000000 0.000000
vt 0.892857 0.000000 1.000000
vt 0.750000 0.000000 1.000000
vt 0.035714 0.000000 1.000000
vt -0.107143 0.000000 1.000000
vt 0.178571 0.000000 1.000000
vt 0.321429 0.000000 1.000000
vt 0.464286 0.000000 1.000000
vt 0.607143 0.000000 1.000000
vt 0.500000 1.000000 0.000000
# 10 texture coords

g Cone002
usemtl Material__34
f 13/15/10 14/16/10 15/17/10 
f 13/15/10 16/18/10 14/19/10 
f 13/15/10 17/20/10 16/18/10 
f 13/15/10 18/21/10 17/20/10 
f 13/15/10 19/22/10 18/21/10 
f 13/15/10 20/23/10 19/22/10 
f 13/15/10 15/17/10 20/23/10 
f 15/17/11 21/24/11 21/24/11 
f 15/17/12 14/16/12 21/24/12 
f 14/16/11 21/24/11 21/24/11 
f 14/19/13 16/18/13 21/24/13 
f 16/18/11 21/24/11 21/24/11 
f 16/18/14 17/20/14 21/24/14 
f 17/20/11 21/24/11 21/24/11 
f 17/20/15 18/21/15 21/24/15 
f 18/21/11 21/24/11 21/24/11 
f 18/21/16 19/22/16 21/24/16 
f 19/22/11 21/24/11 21/24/11 
f 19/22/17 20/23/17 21/24/17 
f 20/23/11 21/24/11 21/24/11 
f 20/23/18 15/17/18 21/24/19 
f 21/24/11 21/24/11 21/24/11 
f 21/24/11 21/24/11 21/24/11 
f 21/24/11 21/24/11 21/24/11 
f 21/24/11 21/24/11 21/24/11 
f 21/24/11 21/24/11 21/24/11 
f 21/24/11 21/24/11 21/24/11 
f 21/24/11 21/24/11 21/24/11 
# 28 faces

#
# object Cone003
#

v  -0.140878 -0.086425 3.401266
v  0.893722 1.223744 3.387223
v  1.528720 -0.078273 3.401126
v  -0.520351 1.539177 3.383894
v  -1.648673 0.630498 3.393646
v  -1.641595 -0.818039 3.409136
v  -0.504447 -1.715656 3.418699
v  0.906475 -1.386429 3.415134
v  -0.140662 -0.012990 5.390572
# 9 vertices

vn -0.000108 -0.036890 -0.999319
vn 0.999988 0.004883 -0.000084
vn 0.864776 0.431694 0.268076
vn 0.209525 0.948994 0.262565
vn -0.603480 0.759260 0.264620
vn -0.962030 0.005366 0.272693
vn -0.596130 -0.744991 0.280705
vn 0.218690 -0.926777 0.282623
vn 0.868855 -0.403102 0.277003
# 9 vertex normals

vt 0.500000 0.000000 0.000000
vt 0.892857 0.000000 1.000000
vt 0.750000 0.000000 1.000000
vt 0.035714 0.000000 1.000000
vt -0.107143 0.000000 1.000000
vt 0.178571 0.000000 1.000000
vt 0.321429 0.000000 1.000000
vt 0.464286 0.000000 1.000000
vt 0.607143 0.000000 1.000000
vt 0.500000 1.000000 0.000000
# 10 texture coords

g Cone003
usemtl Material__33
f 22/25/20 23/26/20 24/27/20 
f 22/25/20 25/28/20 23/29/20 
f 22/25/20 26/30/20 25/28/20 
f 22/25/20 27/31/20 26/30/20 
f 22/25/20 28/32/20 27/31/20 
f 22/25/20 29/33/20 28/32/20 
f 22/25/20 24/27/20 29/33/20 
f 24/27/21 30/34/21 30/34/21 
f 24/27/22 23/26/22 30/34/22 
f 23/26/21 30/34/21 30/34/21 
f 23/29/23 25/28/23 30/34/23 
f 25/28/21 30/34/21 30/34/21 
f 25/28/24 26/30/24 30/34/24 
f 26/30/21 30/34/21 30/34/21 
f 26/30/25 27/31/25 30/34/25 
f 27/31/21 30/34/21 30/34/21 
f 27/31/26 28/32/26 30/34/26 
f 28/32/21 30/34/21 30/34/21 
f 28/32/27 29/33/27 30/34/27 
f 29/33/21 30/34/21 30/34/21 
f 29/33/28 24/27/28 30/34/28 
f 30/34/21 30/34/21 30/34/21 
f 30/34/21 30/34/21 30/34/21 
f 30/34/21 30/34/21 30/34/21 
f 30/34/21 30/34/21 30/34/21 
f 30/34/21 30/34/21 30/34/21 
f 30/34/21 30/34/21 30/34/21 
f 30/34/21 30/34/21 30/34/21 
# 28 faces

#
# object Cone004
#

v  -0.140878 -0.086425 2.048113
v  1.251281 1.676540 2.034070
v  2.105734 -0.075455 2.047973
v  -0.651496 2.100986 2.030742
v  -2.169768 0.878267 2.040494
v  -2.160244 -1.070885 2.055983
v  -0.630097 -2.278719 2.065546
v  1.268442 -1.835711 2.061981
v  -0.140588 0.012389 4.037419
# 9 vertices

vn -0.000146 -0.049611 -0.998769
vn 0.999988 0.004883 -0.000062
vn 0.864786 0.435175 0.269091
vn 0.209536 0.952489 0.264995
vn -0.603470 0.762750 0.266522
vn -0.962020 0.008836 0.272522
vn -0.596120 -0.741540 0.278476
vn 0.218701 -0.923330 0.279902
vn 0.868865 -0.399643 0.275725
# 9 vertex normals

vt 0.500000 0.000000 0.000000
vt 0.892857 0.000000 1.000000
vt 0.750000 0.000000 1.000000
vt 0.035714 0.000000 1.000000
vt -0.107143 0.000000 1.000000
vt 0.178571 0.000000 1.000000
vt 0.321429 0.000000 1.000000
vt 0.464286 0.000000 1.000000
vt 0.607143 0.000000 1.000000
vt 0.500000 1.000000 0.000000
# 10 texture coords

g Cone004
usemtl Material__32
f 31/35/29 32/36/29 33/37/29 
f 31/35/29 34/38/29 32/39/29 
f 31/35/29 35/40/29 34/38/29 
f 31/35/29 36/41/29 35/40/29 
f 31/35/29 37/42/29 36/41/29 
f 31/35/29 38/43/29 37/42/29 
f 31/35/29 33/37/29 38/43/29 
f 33/37/30 39/44/30 39/44/30 
f 33/37/31 32/36/31 39/44/31 
f 32/36/30 39/44/30 39/44/30 
f 32/39/32 34/38/32 39/44/32 
f 34/38/30 39/44/30 39/44/30 
f 34/38/33 35/40/33 39/44/33 
f 35/40/30 39/44/30 39/44/30 
f 35/40/34 36/41/34 39/44/34 
f 36/41/30 39/44/30 39/44/30 
f 36/41/35 37/42/35 39/44/35 
f 37/42/30 39/44/30 39/44/30 
f 37/42/36 38/43/36 39/44/36 
f 38/43/30 39/44/30 39/44/30 
f 38/43/37 33/37/37 39/44/37 
f 39/44/30 39/44/30 39/44/30 
f 39/44/30 39/44/30 39/44/30 
f 39/44/30 39/44/30 39/44/30 
f 39/44/30 39/44/30 39/44/30 
f 39/44/30 39/44/30 39/44/30 
f 39/44/30 39/44/30 39/44/30 
f 39/44/30 39/44/30 39/44/30 
# 28 faces

