# 3ds Max Wavefront OBJ Exporter v0.97b - (c)2007 guruware
# File Created: 18.08.2014 17:56:45

mtllib cube.mtl

#
# object UnitBox001
#

v  -1.000000 -1.000000 -1.000000
v  -1.000000 1.000000 -1.000000
v  1.000000 1.000000 -1.000000
v  1.000000 -1.000000 -1.000000
v  -1.000000 -1.000000 1.000000
v  1.000000 -1.000000 1.000000
v  1.000000 1.000000 1.000000
v  -1.000000 1.000000 1.000000
# 8 vertices

vn 0.000000 0.000000 -1.000000
vn -0.000000 -0.000000 1.000000
vn 0.000000 -0.000000 1.000000
vn 0.000000 -1.000000 -0.000000
vn 1.000000 0.000000 -0.000000
vn -0.000000 1.000000 0.000000
vn 0.000000 1.000000 0.000000
vn -1.000000 0.000000 -0.000000
# 8 vertex normals

vt 1.000000 0.000000 0.000000
vt 1.000000 1.000000 0.000000
vt 0.000000 1.000000 0.000000
vt 0.000000 0.000000 0.000000
# 4 texture coords

g UnitBox001
usemtl no_material
s 2
f 1/1/1 2/2/1 3/3/1 
f 3/3/1 4/4/1 1/1/1 
s 4
f 5/4/2 6/1/3 7/2/2 
f 7/2/2 8/3/2 5/4/2 
s 8
f 1/4/4 4/1/4 6/2/4 
f 6/2/4 5/3/4 1/4/4 
s 16
f 4/4/5 3/1/5 7/2/5 
f 7/2/5 6/3/5 4/4/5 
s 32
f 3/4/6 2/1/7 8/2/6 
f 8/2/6 7/3/6 3/4/6 
s 64
f 2/4/8 1/1/8 5/2/8 
f 5/2/8 8/3/8 2/4/8 
# 12 faces

